HIERARCHY
ROOT Hips
{
  OFFSET 196.326 95.9168 97.7182
  CHANNELS 6 Xposition Yposition Zposition Zrotation Xrotation Yrotation
  JOINT LeftUpLeg
  {
    OFFSET 8.64259 1.95398 -2.38835
    CHANNELS 3 Zrotation Xrotation Yrotation
    JOINT LeftLeg
    {
      OFFSET 43.7702 0 0
      CHANNELS 3 Zrotation Xrotation Yrotation
      JOINT LeftFoot
      {
        OFFSET 40.6238 0 0
        CHANNELS 3 Zrotation Xrotation Yrotation
        JOINT LeftToeBase
        {
          OFFSET 12.7242 0 0
          CHANNELS 3 Zrotation Xrotation Yrotation
          End Site
          {
            OFFSET 0 0 0
          }
        }
      }
    }
  }
  JOINT RightUpLeg
  {
    OFFSET -8.2249 1.95398 -2.59336
    CHANNELS 3 Zrotation Xrotation Yrotation
    JOINT RightLeg
    {
      OFFSET 43.5653 0 0
      CHANNELS 3 Zrotation Xrotation Yrotation
      JOINT RightFoot
      {
        OFFSET 40.6238 0 0
        CHANNELS 3 Zrotation Xrotation Yrotation
        JOINT RightToeBase
        {
          OFFSET 12.7242 0 0
          CHANNELS 3 Zrotation Xrotation Yrotation
          End Site
          {
            OFFSET 0 0 0
          }
        }
      }
    }
  }
  JOINT Spine
  {
    OFFSET 0.165834 0.87714 6.61349
    CHANNELS 3 Zrotation Xrotation Yrotation
    JOINT Spine1
    {
      OFFSET 7.38963 1.71661e-005 0
      CHANNELS 3 Zrotation Xrotation Yrotation
      JOINT Spine2
      {
        OFFSET 11.9445 1.14441e-005 0
        CHANNELS 3 Zrotation Xrotation Yrotation
        JOINT Spine3
        {
          OFFSET 14.7254 4.19617e-005 0
          CHANNELS 3 Zrotation Xrotation Yrotation
          JOINT Spine4
          {
            OFFSET 10.9679 0 0
            CHANNELS 3 Zrotation Xrotation Yrotation
            JOINT RightShoulder
            {
              OFFSET 2.46616 -1.6653 3.69651
              CHANNELS 3 Zrotation Xrotation Yrotation
              JOINT RightArm
              {
                OFFSET 13.0012 0 0
                CHANNELS 3 Zrotation Xrotation Yrotation
                JOINT RightForeArm
                {
                  OFFSET 28.7848 1.52588e-005 0
                  CHANNELS 3 Zrotation Xrotation Yrotation
                  JOINT RightHand
                  {
                    OFFSET 26.5688 1.52588e-005 0
                    CHANNELS 3 Zrotation Xrotation Yrotation
                    End Site
                    {
                      OFFSET 0 0 0
                    }
                  }
                }
              }
            }
            JOINT LeftShoulder
            {
              OFFSET 2.38034 -1.29275 -3.75231
              CHANNELS 3 Zrotation Xrotation Yrotation
              JOINT LeftArm
              {
                OFFSET 16.3182 6.10351e-005 0
                CHANNELS 3 Zrotation Xrotation Yrotation
                JOINT LeftForeArm
                {
                  OFFSET 27.0901 0 0
                  CHANNELS 3 Zrotation Xrotation Yrotation
                  JOINT LeftHand
                  {
                    OFFSET 24.5451 1.52588e-005 0
                    CHANNELS 3 Zrotation Xrotation Yrotation
                    End Site
                    {
                      OFFSET 0 0 0
                    }
                  }
                }
              }
            }
            JOINT Neck
            {
              OFFSET 5.0226 -0.0266342 0
              CHANNELS 3 Zrotation Xrotation Yrotation
              JOINT Head
              {
                OFFSET 6.69363 2.86102e-005 0
                CHANNELS 3 Zrotation Xrotation Yrotation
                End Site
                {
                  OFFSET 0 0 0
                }
              }
            }
          }
        }
      }
    }
  }
}
MOTION
Frames:	16
Frame Time:	0.0416667
-297.57 75.4217 -302.795 66.2562 -25.752 93.7915 31.8836 30.7105 39.9166 92.2032 49.0811 141.93 64.9271 -1.22033 110.717 19.6031 22.4091 168.293 160.21 82.876 113.485 -76.7715 34.2483 6.09394 13.0707 0.737617 5.22637 129.496 28.2989 19.2644 6.9964 4.92667 -90.3146 17.361 13.613 -3.08548 5.75762 13.4639 -3.69192 -17.3634 13.8986 1.23023 2.64924 13.8986 1.23021 98.9349 30.2996 27.9693 34.8776 -44.5197 -104.354 -118.172 10.9077 179.97 27.1986 20.9411 56.48 -143.674 -32.2428 -4.70372 -46.3255 29.4342 85.8012 160.209 -5.81292 -70.6099 29.1792 4.60002 12.1263 50.9275 10.0921 71.9792 79.5755 -3.32749 29.0679 
-297.943 75.2396 -303.138 66.3182 -25.8696 93.8344 32.9122 30.6281 39.1519 93.0297 48.5804 141.033 65.8097 -2.10897 110.616 20.0923 21.8504 168.456 159.738 83.245 114.283 -76.6323 33.068 5.55483 13.409 1.07267 5.52244 130.102 27.0522 17.8266 7.08016 4.85528 -90.3377 17.5176 13.7605 -3.1879 5.91554 13.6068 -3.80102 -17.2188 14.0697 1.17972 2.79382 14.0697 1.17972 96.1438 31.9622 28.285 36.2348 -45.5871 -102.001 -117.933 10.6143 179.97 27.1604 21.2647 57.4964 -144.277 -32.0496 -5.49963 -46.3987 29.241 86.2665 161.159 -5.30385 -71.6823 28.202 4.87737 13.669 50.5746 9.21381 72.3853 80.1204 -2.39772 28.2224 
-299.023 74.7026 -304.129 66.5003 -26.2103 93.956 35.9618 30.076 36.9163 95.6217 47.0584 138.14 68.3905 -4.49541 110.396 21.5485 20.2192 168.867 157.821 84.2701 117.106 -76.4576 28.7315 4.11712 15.1651 2.67075 6.285 130.957 23.1261 13.8667 7.31051 4.6497 -90.4071 17.9695 14.1612 -3.48835 6.37098 13.9939 -4.11962 -16.8003 14.5409 1.02164 3.21233 14.541 1.02164 87.9944 36.5789 29.2791 40.6888 -48.4596 -94.7032 -117.113 9.66971 179.97 27.3093 22.2646 60.2514 -145.94 -31.5077 -7.67573 -46.6828 28.6347 87.545 163.724 -4.12378 -74.7298 25.341 5.4827 17.952 45.8441 7.86327 73.4162 81.7985 0.22049 29.831 
-300.75 73.8121 -305.712 66.8009 -26.7579 94.1463 41.1092 28.057 33.3226 100.438 44.2795 132.442 72.6692 -7.66514 110.242 24.1196 17.4438 169.249 152.414 85.6577 123.933 -77.3065 20.8768 2.23659 22.1281 4.99413 7.31241 128.594 15.3133 7.41516 7.64508 4.32156 -90.5284 18.6931 14.7261 -3.98632 7.09931 14.5363 -4.64311 -16.1257 15.2276 0.728673 3.88693 15.2276 0.728663 74.7312 43.4049 31.1114 49.4438 -52.2003 -81.5569 -115.45 7.93256 179.97 28.236 24.0992 64.2 -148.362 -30.6771 -10.811 -47.2841 27.4936 89.3446 167.293 -2.97174 -79.4217 20.8091 5.91227 24.2978 35.5127 6.50813 74.2963 83.8539 4.7497 35.72 
-303.053 72.5656 -307.832 67.2224 -27.4986 94.3958 48.6607 22.6212 28.7519 108.156 39.4115 122.439 78.9199 -10.3681 110.227 28.2883 13.0929 168.916 158.424 85.0514 119.928 -79.5064 8.25111 0.346711 50.3927 4.24283 3.61818 109.444 0.942799 -6.34457 8.03393 3.88208 -90.7162 19.6659 15.3451 -4.6945 8.07673 15.1236 -5.37895 -15.2087 16.0287 0.253761 4.80391 16.0287 0.253769 56.7351 51.5592 34.0379 63.5233 -54.9629 -61.9797 -112.736 5.43881 179.97 30.3098 26.9588 68.9813 -151.159 -29.5944 -14.4238 -48.2425 25.5867 91.1846 171.159 -2.62961 -85.2993 15.1765 5.6917 31.8627 22.2189 4.78561 74.1722 85.0846 11.4129 43.8097 
-305.921 70.7216 -310.442 67.7693 -28.4196 94.6962 59.5521 10.4241 24.1384 118.438 30.3577 106.378 88.0932 -10.1268 110.506 33.1732 7.93634 166.032 -177.226 76.4669 96.4377 -71.1256 -5.34573 -0.901616 100.664 -11.183 -3.1996 58.7995 -4.35756 -28.9776 8.36572 3.35418 -91.0047 20.8359 15.7786 -5.62382 9.24812 15.5159 -6.32675 -14.0806 16.72 -0.490934 5.93208 16.72 -0.490938 36.9104 59.6184 37.8315 78.0198 -54.8241 -41.005 -109.208 6.60606 179.29 32.9724 30.7928 74.8286 -153.308 -28.3687 -17.5188 -49.4737 22.1966 91.9788 174.714 -3.26402 -91.4206 9.25438 4.64116 39.8167 7.79662 3.19609 73.0274 84.5121 19.6632 52.9675 
-309.191 67.1635 -313.072 68.4465 -29.5059 95.0384 76.2381 -7.35986 14.8959 119.38 13.2025 87.0991 108.671 -1.36068 121.864 32.9719 9.01238 152.578 -169.2 73.8361 87.7436 -63.2622 -15.1776 -1.92928 124.796 -18.3402 -1.37081 30.7236 1.70208 -37.0972 10.4668 2.44751 -90.9651 22.9593 19.7669 -7.02668 11.4192 19.4397 -7.91699 -12.3632 20.9218 -0.506622 7.64949 20.9218 -0.506617 -96.7491 75.1254 110.407 125.778 -22.0545 17.1504 -47.0856 -68.7862 -129.586 32.5868 31.8491 81.6684 -168.672 -22.6747 -34.0738 -53.3892 29.8631 103.648 177.401 -4.34904 -97.8441 3.73479 2.87785 47.4346 -13.4313 -8.09613 61.5078 77.546 29.9758 71.8385 
-315.89 57.121 -317.91 69.2554 -30.7377 95.4102 152.491 7.74967 92.391 -168.613 54.2114 45.8297 56.0831 -2.11045 41.7201 16.9612 71.7794 108.527 -135.643 83.6434 52.8234 -69.8103 -20.2707 -3.22199 133.398 -16.4834 -0.745792 22.6784 4.37123 -40.0168 7.66374 2.32203 -92.6384 23.32 13.3045 -9.03784 11.6739 12.8963 -9.61498 -11.2772 15.3996 -4.57421 8.73548 15.3996 -4.57422 26.2295 70.5117 24.4503 98.1657 -56.864 -30.1976 -99.3253 -59.3081 -167.175 32.2134 38.0981 91.7708 -155.124 -34.9221 -12.5331 -57.8193 2.12916 84.2477 179.886 -6.6543 -106.397 -0.907732 0.737471 54.626 -17.3864 15.0347 69.8986 82.6803 39.2329 66.052 
-319.777 54.723 -321.225 70.176 -32.0844 95.7849 172.809 17.6428 81.2803 -139.688 49.1605 40.3198 60.2862 -15.4023 22.2989 94.0438 77.1464 10.8285 -119.454 83.5489 36.6113 -66.1443 -22.9134 -4.07022 134.954 -15.6939 -1.06004 21.1402 5.06697 -41.6346 6.9548 1.53102 -93.6806 24.4728 11.289 -10.7517 12.8023 10.8079 -11.2353 -9.9584 13.9863 -6.84511 10.0542 13.9863 -6.84509 29.6765 72.3236 20.9862 74.6761 -57.7461 -44.7655 -108.147 -42.3488 179.96 26.0781 36.8643 103.427 -147.886 -36.7574 -5.64647 -62.4659 6.52058 74.7999 -179.001 -8.63733 -113.691 -4.63032 -1.53687 60.9127 -35.7643 14.2066 76.5164 75.1688 48.695 78.6827 
-319.621 59.9442 -321.879 71.0238 -33.4848 96.0229 168.96 7.88582 100.38 -84.7855 50.5672 5.95574 44.4081 -10.2919 2.3425 134.007 70.8883 -36.3175 -151.078 76.7977 69.7165 -54.7392 -25.3043 -4.31501 134.577 -18.3697 -1.01307 21.9547 4.93055 -42.5356 7.40689 0.80844 -94.2507 26.0004 11.7002 -12.3552 14.3184 11.1497 -12.8528 -8.39692 14.855 -8.26168 11.6157 14.8549 -8.26168 -31.6782 84.014 59.043 95.0683 -53.1382 -15.8951 -97.2674 -71.5946 -179.077 20.5809 32.8595 110.29 -149.436 -35.3162 -8.32787 -66.8343 2.79193 73.2854 -178.688 -10.801 -119.988 -7.48127 -3.71086 66.2917 -55.3681 12.4925 72.9273 53.2669 53.6948 107.456 
-322.084 60.1037 -324.309 70.6378 -34.8589 95.3229 173.623 -2.10928 101.764 -64.2174 40.0529 3.04344 41.8993 -10.1671 -6.99562 140.735 64.697 -48.0219 -148.809 75.5506 67.6151 -48.5453 -26.3056 -4.49342 132.158 -18.244 -1.70007 23.555 4.4804 -43.1044 6.92751 -0.146115 -95.6251 28.0741 9.75208 -14.9172 16.3483 9.09359 -15.3211 -6.03916 13.763 -11.3459 13.9735 13.763 -11.3459 -148.502 79.3087 153.014 103.91 -47.8673 -1.11165 85.7648 -74.1464 -2.17157 16.3592 28.931 114.565 -149.784 -42.1116 -3.54114 -75.1376 -1.20412 71.4367 -179.87 -14.4062 -127.464 -9.71513 -5.76717 70.9028 -85.676 13.1753 70.8152 22.9378 49.192 139.462 
-325.47 58.4606 -327.318 67.3372 -36.2773 92.5372 177.44 -10.6349 101.522 -45.1257 31.9597 1.69317 38.1243 -9.83078 -14.0718 141.923 60.6842 -52.6148 -135.63 77.6004 53.9098 -43.8177 -26.6971 -4.64848 128.698 -16.9705 -2.63528 25.2882 3.95698 -43.5512 6.37672 -1.06922 -96.3684 29.5391 8.09808 -16.303 17.7871 7.38291 -16.6318 -4.36814 12.5841 -13.1918 15.6445 12.5841 -13.1918 -176.832 73.1945 168.918 105.464 -46.7226 2.99033 85.9858 -17.0976 -2.05465 13.2648 25.3247 116.921 -146.277 -49.375 4.96748 -79.7626 -4.2368 70.3632 179.082 -17.3591 -133.934 -11.2847 -7.45039 74.6974 48.2319 -0.229447 99.1256 167.951 -23.361 -7.24466 
-330.016 56.7311 -331.421 83.4859 -35.1515 102.741 -177.802 -35.3503 104.637 -24.0023 26.5381 0.99842 31.8505 -9.78103 -19.9093 141.908 58.0538 -54.9683 -156.802 66.3871 75.0317 -36.1969 -26.4319 -3.75489 123.104 -14.571 -3.83831 26.9223 3.44743 -43.9297 5.45044 0.104886 -96.9403 26.9804 6.26253 -16.4742 15.2172 5.54181 -16.7242 -6.80194 10.8805 -13.91 13.2107 10.8805 -13.9099 167.461 70.744 -179.475 106.572 -45.7392 6.52542 88.0234 27.8704 -5.6921 11.2157 22.6158 117.574 -144.403 -50.1463 7.52656 -78.195 -6.09672 69.0138 179.569 -18.1037 -138.408 -12.242 -8.68848 77.725 70.8899 -3.53762 104.357 165.012 -44.8253 -8.2861 
-334.046 54.6161 -334.912 86.9922 -35.2579 104.333 -171.959 -51.5022 108.219 0.98392 21.4035 -0.0610933 22.7843 -9.24878 -25.1415 141.567 56.2994 -56.2975 -157.5 62.5293 74.7207 -26.9413 -26.4795 -3.0096 116.583 -11.8137 -4.89488 28.3396 3.00041 -44.3094 5.087 -0.0408521 -98.091 27.1087 4.87069 -18.4662 15.3137 4.06774 -18.6532 -6.43937 10.1266 -16.2515 13.5733 10.1266 -16.2515 158.055 61.2559 172.546 111.396 -37.5287 18.7528 87.7224 33.0964 -8.34179 9.67784 20.4409 117.633 -145.169 -54.0872 9.28055 -83.1942 -8.93061 65.6302 178.027 -20.0917 -144.986 -12.9334 -9.69716 80.2136 54.3655 -2.57279 107.031 175.452 -35.5957 2.82112 
-337.922 52.5518 -338.215 90.274 -35.3163 105.592 -171.299 -55.1119 107.902 -0.628321 17.6827 0.0036654 26.6118 -7.388 -25.2506 141.157 55.1014 -57.0889 -159.747 55.2056 75.1469 -9.8888 -26.6058 -1.17122 106.45 -7.77821 -5.90022 29.5231 2.62319 -44.6837 4.98446 0.236024 -97.9849 26.5481 4.79707 -18.1476 14.7574 4.00744 -18.3321 -7.02328 9.96457 -15.9646 12.9894 9.96459 -15.9646 147.975 58.3435 178.805 112.196 -35.4764 22.4094 88.2924 36.9766 -12.2059 8.6137 18.9846 117.176 -144.068 -53.6446 10.1978 -82.851 -11.2158 62.591 178.482 -19.6756 -149.539 -13.1851 -10.2555 82.0866 42.0897 -9.32404 103.981 -178.367 -21.8055 8.11284 
-341.504 50.6431 -341.208 93.2975 -35.4057 106.43 -170.943 -59.0118 107.134 -0.603898 14.6726 0.00248838 29.1822 -6.05558 -25.7955 140.752 54.274 -57.5591 -159.921 51.7876 74.294 -1.84658 -25.5265 -0.228715 100.818 -5.16802 -5.07413 30.4734 2.31784 -45.0501 4.3444 0.615042 -98.181 25.6568 3.54608 -18.0754 13.8641 2.76053 -18.2075 -7.86154 8.74643 -16.2617 12.1511 8.7464 -16.2617 146.069 57.8503 -179.639 110.89 -38.634 20.3018 87.1179 40.387 -12.0978 7.64072 17.3702 116.91 -139.66 -57.3912 17.4264 -83.875 -13.3338 59.3164 178.376 -19.4543 -154.689 -13.2102 -10.5095 83.3634 31.3513 -10.9181 99.2954 -171.752 -13.458 12.0405 
